<!-- Generated by IcoMoon.io -->
<svg version="1.1" xmlns="http://www.w3.org/2000/svg" width="64" height="64" viewBox="0 0 32 32">
<title>rm-site--logo-1</title>
<path fill="#00deb6" d="M27.692 31.354h-5.983l-5.983-5.128-5.983 5.128h-5.983c-0.855 0-1.709-0.342-2.222-0.855-0.684-0.684-0.855-1.368-0.855-2.222v-13.504c0-0.855 0.342-1.709 0.855-2.222l0.171-0.171 14.188-11.966 14.359 11.966c0.513 0.513 0.855 1.368 0.855 2.222v13.504c0 0.855-0.342 1.709-0.855 2.222-0.855 0.684-1.709 1.026-2.564 1.026zM23.077 27.764h4.274v-12.821l-11.624-9.744-11.624 9.744v12.821h4.103l7.35-6.154 7.521 6.154z"></path>
</svg>
